<svg width="140" height="36" fill="none" xmlns="http://www.w3.org/2000/svg"><rect width="35.74" height="36" rx="4.5" fill="#E63030"/><path fill-rule="evenodd" clip-rule="evenodd" d="M2.6 12.346c0-5.383 4.364-9.747 9.747-9.747h9.227v8.057a1.95 1.95 0 01-1.95 1.95H2.6v-.26zm30.542 11.308c0 5.383-4.364 9.747-9.748 9.747h-9.227v-8.057a1.95 1.95 0 011.95-1.95h17.025v.26zm-9.748-10.658c5.384 0 9.748 4.364 9.748 9.747v.26H12.347c-5.383 0-9.747-4.364-9.747-9.747v-.26h20.794z" fill="#fff"/><path d="M48.38 15.808c0 .765.13 1.419.392 1.96.261.541.625.99 1.092 1.344a5.04 5.04 0 001.597.757 8.441 8.441 0 001.988.224c.766 0 1.42-.084 1.96-.252.542-.187.98-.42 1.317-.7.336-.28.579-.598.728-.953.15-.373.224-.747.224-1.12 0-.766-.177-1.326-.532-1.68a2.799 2.799 0 00-1.12-.785 21.55 21.55 0 00-2.493-.728c-.933-.243-2.091-.55-3.473-.924-.859-.224-1.578-.514-2.156-.868-.56-.374-1.009-.785-1.345-1.233a4.502 4.502 0 01-.728-1.428 6.113 6.113 0 01-.196-1.54c0-1.009.206-1.877.616-2.605.43-.747.99-1.363 1.68-1.849a7.109 7.109 0 012.353-1.064A9.938 9.938 0 0152.945 2c1.046 0 2.026.14 2.94.42.934.262 1.747.663 2.437 1.204a5.862 5.862 0 011.68 2.017c.412.784.617 1.699.617 2.745h-3.5c-.094-1.289-.533-2.194-1.317-2.717-.785-.542-1.783-.812-2.997-.812-.41 0-.83.046-1.26.14-.43.074-.822.214-1.177.42a2.574 2.574 0 00-.896.784c-.224.336-.336.756-.336 1.26 0 .71.215 1.27.644 1.68.448.393 1.027.692 1.737.897.074.019.364.103.868.252a130.068 130.068 0 013.585.952c.616.15 1.055.262 1.316.336a5.834 5.834 0 011.709.84c.485.355.886.766 1.204 1.233.336.448.579.934.728 1.456.168.523.252 1.046.252 1.569 0 1.12-.233 2.082-.7 2.885a5.732 5.732 0 01-1.792 1.932 7.635 7.635 0 01-2.55 1.092c-.951.243-1.922.364-2.912.364-1.139 0-2.212-.14-3.22-.42-1.009-.28-1.887-.71-2.634-1.288a6.338 6.338 0 01-1.792-2.213c-.448-.915-.681-1.988-.7-3.22h3.5zm24.518-1.848a4.869 4.869 0 00-.336-1.457 3.413 3.413 0 00-.728-1.205 3.164 3.164 0 00-1.12-.84 3.1 3.1 0 00-1.457-.336c-.56 0-1.073.103-1.54.308a3.41 3.41 0 00-1.176.812 4.196 4.196 0 00-.784 1.205c-.187.467-.29.97-.309 1.512h7.45zm-7.45 2.1c0 .56.075 1.101.225 1.624.168.523.41.98.728 1.372.317.392.719.71 1.204.953.486.224 1.064.336 1.736.336.934 0 1.68-.196 2.241-.588.579-.411 1.008-1.018 1.288-1.82h3.025a6.02 6.02 0 01-.868 2.1 6.253 6.253 0 01-1.484 1.568 6.324 6.324 0 01-1.961.924 7.395 7.395 0 01-2.24.336c-1.14 0-2.148-.186-3.025-.56a6.39 6.39 0 01-2.24-1.568c-.598-.672-1.056-1.475-1.373-2.409-.299-.933-.448-1.96-.448-3.08a8.81 8.81 0 01.476-2.913 7.634 7.634 0 011.4-2.437 6.76 6.76 0 012.213-1.68c.859-.411 1.83-.617 2.912-.617 1.14 0 2.157.243 3.053.729a6.548 6.548 0 012.269 1.876 7.466 7.466 0 011.288 2.717 8.02 8.02 0 01.224 3.137H65.45zm12.23-8.066h3.025v2.016h.084a8.23 8.23 0 01.784-.98 4.41 4.41 0 01.924-.756 4.633 4.633 0 011.205-.477 5.51 5.51 0 011.54-.196c.878 0 1.69.196 2.437.589.765.392 1.307.999 1.624 1.82.542-.747 1.167-1.335 1.877-1.764.71-.43 1.596-.645 2.66-.645 1.531 0 2.717.374 3.557 1.12.86.748 1.289 1.999 1.289 3.754v9.998H95.49v-8.458c0-.579-.019-1.101-.056-1.568-.038-.486-.15-.896-.336-1.233a1.74 1.74 0 00-.785-.812c-.354-.186-.84-.28-1.456-.28-1.083 0-1.867.336-2.353 1.008-.485.672-.728 1.625-.728 2.857v8.486h-3.192v-9.298c0-1.008-.187-1.765-.56-2.269-.355-.523-1.018-.784-1.99-.784-.41 0-.811.084-1.203.252-.374.168-.71.41-1.009.728a4.01 4.01 0 00-.7 1.177c-.168.466-.252.999-.252 1.596v8.598h-3.193V7.993zm23.614 0h3.024v1.96h.056c.448-.84 1.074-1.438 1.877-1.792a6.1 6.1 0 012.605-.56c1.138 0 2.128.205 2.968.616a5.658 5.658 0 012.129 1.652c.56.69.98 1.503 1.26 2.437.28.933.42 1.932.42 2.996 0 .971-.13 1.914-.392 2.83a7.157 7.157 0 01-1.148 2.436 5.8 5.8 0 01-1.933 1.68c-.784.411-1.708.616-2.772.616-.467 0-.934-.046-1.401-.14a5.556 5.556 0 01-1.344-.392 5.963 5.963 0 01-1.204-.7 4.324 4.324 0 01-.897-1.036h-.056v7.226h-3.192V7.993zm11.146 7.253c0-.653-.084-1.288-.252-1.904a5.007 5.007 0 00-.756-1.624 3.705 3.705 0 00-1.26-1.149c-.504-.299-1.083-.448-1.737-.448-1.344 0-2.362.467-3.052 1.4-.673.934-1.009 2.176-1.009 3.725 0 .729.084 1.41.252 2.045a4.77 4.77 0 00.813 1.596c.354.448.775.803 1.26 1.065.504.261 1.083.392 1.736.392.729 0 1.345-.15 1.849-.448a3.821 3.821 0 001.232-1.149c.336-.485.57-1.027.7-1.624.15-.616.224-1.242.224-1.877zm5.051-7.253h2.997v2.8h.056a3.34 3.34 0 01.532-1.148c.28-.373.607-.71.98-1.008a4.98 4.98 0 011.288-.756c.467-.187.943-.28 1.429-.28.373 0 .625.009.756.027.149.02.299.038.448.056v3.081a7.955 7.955 0 00-.7-.084 4.085 4.085 0 00-.672-.056c-.542 0-1.055.112-1.541.336a3.34 3.34 0 00-1.232.953c-.355.41-.635.924-.84 1.54-.206.616-.308 1.326-.308 2.129v6.89h-3.193V7.993zm15.151 14.871c-1.157 0-2.193-.186-3.108-.56a6.942 6.942 0 01-2.297-1.596c-.616-.672-1.092-1.475-1.428-2.409-.318-.933-.476-1.96-.476-3.08 0-1.102.158-2.12.476-3.053.336-.934.812-1.737 1.428-2.409a6.61 6.61 0 012.297-1.568c.915-.393 1.951-.589 3.108-.589 1.158 0 2.185.196 3.081.589.915.373 1.681.896 2.297 1.568a6.498 6.498 0 011.428 2.409c.336.933.504 1.95.504 3.052 0 1.12-.168 2.148-.504 3.081a6.498 6.498 0 01-1.428 2.409c-.616.672-1.382 1.204-2.297 1.596-.896.374-1.923.56-3.081.56zm0-2.52c.71 0 1.326-.15 1.849-.448a3.89 3.89 0 001.288-1.177 4.919 4.919 0 00.728-1.624 7 7 0 000-3.725 4.6 4.6 0 00-.728-1.624 3.893 3.893 0 00-1.288-1.177c-.523-.299-1.139-.448-1.849-.448-.709 0-1.325.15-1.848.448a3.898 3.898 0 00-1.288 1.176 5.008 5.008 0 00-.757 1.625 7.84 7.84 0 000 3.725 5.4 5.4 0 00.757 1.624 3.89 3.89 0 001.288 1.177c.523.298 1.139.448 1.848.448zM48.011 32.509c1.29 0 2.124-.774 2.241-1.836H49.22c-.135.59-.593.938-1.2.938-.899 0-1.478-.75-1.478-1.94 0-1.168.59-1.903 1.478-1.903.674 0 1.086.426 1.2.938h1.033c-.114-1.101-1.012-1.833-2.251-1.833-1.538 0-2.532 1.158-2.532 2.823 0 1.645.959 2.813 2.542 2.813zm5.574 0c1.538 0 2.543-1.126 2.543-2.813 0-1.697-1.005-2.823-2.543-2.823-1.537 0-2.542 1.126-2.542 2.823 0 1.687 1.005 2.813 2.542 2.813zm.004-.891c-1.005 0-1.474-.877-1.474-1.925 0-1.044.469-1.932 1.474-1.932.998 0 1.466.888 1.466 1.932 0 1.047-.468 1.925-1.466 1.925zm4.686-2.458c0-.87.532-1.367 1.271-1.367.721 0 1.158.472 1.158 1.264V32.4h1.062v-3.47c0-1.349-.743-2.056-1.858-2.056-.82 0-1.356.38-1.608.96h-.068v-.889h-1.019V32.4h1.062v-3.24zm7.41-2.216H64.51v-.49c0-.483.199-.745.717-.745.22 0 .377.05.476.081l.249-.86a2.548 2.548 0 00-.888-.145c-.863 0-1.62.505-1.62 1.527v.632h-.84v.853h.84v4.602h1.066v-4.602h1.175v-.853zm3.132 5.565c1.19 0 2.031-.586 2.273-1.474l-1.005-.18c-.192.514-.654.777-1.257.777-.91 0-1.52-.59-1.549-1.64h3.878v-.377c0-1.971-1.179-2.742-2.415-2.742-1.52 0-2.52 1.158-2.52 2.834 0 1.694.986 2.802 2.595 2.802zm-1.534-3.313c.043-.774.604-1.446 1.466-1.446.824 0 1.364.611 1.368 1.446h-2.834zm4.952 3.203h1.062v-3.331c0-.714.55-1.229 1.303-1.229.22 0 .47.04.554.064v-1.015a4.313 4.313 0 00-.45-.025c-.64 0-1.187.362-1.386.948h-.056v-.867h-1.027V32.4zm5.894.11c1.19 0 2.03-.586 2.272-1.474l-1.004-.18c-.192.514-.654.777-1.258.777-.909 0-1.52-.59-1.548-1.64h3.878v-.377c0-1.971-1.18-2.742-2.415-2.742-1.52 0-2.521 1.158-2.521 2.834 0 1.694.987 2.802 2.596 2.802zm-1.534-3.313c.042-.774.603-1.446 1.466-1.446.824 0 1.364.611 1.367 1.446h-2.833zm6.014-.036c0-.87.532-1.367 1.271-1.367.721 0 1.158.472 1.158 1.264V32.4H86.1v-3.47c0-1.349-.743-2.056-1.858-2.056-.82 0-1.356.38-1.608.96h-.068v-.889h-1.019V32.4h1.062v-3.24zm7.112 3.349c1.29 0 2.124-.774 2.24-1.836H90.93c-.135.59-.594.938-1.2.938-.9 0-1.478-.75-1.478-1.94 0-1.168.59-1.903 1.477-1.903.675 0 1.087.426 1.2.938h1.034c-.114-1.101-1.012-1.833-2.252-1.833-1.537 0-2.531 1.158-2.531 2.823 0 1.645.958 2.813 2.542 2.813zm5.627 0c1.19 0 2.031-.586 2.273-1.474l-1.005-.18c-.192.514-.653.777-1.257.777-.91 0-1.52-.59-1.548-1.64h3.877v-.377c0-1.971-1.179-2.742-2.414-2.742-1.52 0-2.522 1.158-2.522 2.834 0 1.694.988 2.802 2.596 2.802zm-1.534-3.313c.043-.774.604-1.446 1.467-1.446.824 0 1.363.611 1.367 1.446h-2.834z" fill="#FDFEFE"/></svg>